<svg width="149" height="23" viewBox="0 0 149 23" fill="none" xmlns="http://www.w3.org/2000/svg">
<path d="M0.66 21.5V0.0519991H0.688L12.14 16.292L10.404 15.9L21.828 0.0519991H21.884V21.5H17.824V9.208L18.076 11.308L11.104 21.22H11.048L3.88 11.308L4.58 9.376V21.5H0.66ZM25.9508 11.224C25.9508 9.80533 26.2214 8.46133 26.7628 7.192C27.3041 5.92267 28.0508 4.80267 29.0028 3.832C29.9734 2.84267 31.0934 2.068 32.3628 1.508C33.6321 0.947999 34.9948 0.668 36.4508 0.668C37.8881 0.668 39.2414 0.947999 40.5108 1.508C41.7801 2.068 42.9001 2.84267 43.8708 3.832C44.8601 4.80267 45.6254 5.92267 46.1668 7.192C46.7268 8.46133 47.0068 9.80533 47.0068 11.224C47.0068 12.68 46.7268 14.0427 46.1668 15.312C45.6254 16.5813 44.8601 17.7013 43.8708 18.672C42.9001 19.624 41.7801 20.3707 40.5108 20.912C39.2414 21.4533 37.8881 21.724 36.4508 21.724C34.9948 21.724 33.6321 21.4533 32.3628 20.912C31.0934 20.3707 29.9734 19.624 29.0028 18.672C28.0508 17.7013 27.3041 16.5813 26.7628 15.312C26.2214 14.0427 25.9508 12.68 25.9508 11.224ZM30.1508 11.224C30.1508 12.1387 30.3094 12.9973 30.6268 13.8C30.9628 14.584 31.4201 15.284 31.9988 15.9C32.5961 16.4973 33.2774 16.964 34.0428 17.3C34.8268 17.636 35.6761 17.804 36.5908 17.804C37.4681 17.804 38.2801 17.636 39.0268 17.3C39.7921 16.964 40.4548 16.4973 41.0148 15.9C41.5748 15.284 42.0134 14.584 42.3308 13.8C42.6481 12.9973 42.8068 12.1387 42.8068 11.224C42.8068 10.2907 42.6388 9.42267 42.3028 8.62C41.9854 7.81733 41.5374 7.11733 40.9588 6.52C40.3988 5.904 39.7361 5.428 38.9708 5.092C38.2054 4.756 37.3748 4.588 36.4788 4.588C35.5828 4.588 34.7521 4.756 33.9868 5.092C33.2214 5.428 32.5494 5.904 31.9708 6.52C31.3921 7.11733 30.9441 7.81733 30.6268 8.62C30.3094 9.42267 30.1508 10.2907 30.1508 11.224ZM69.5065 22.34L53.8825 8.228L55.0865 8.9L55.1705 21.5H51.0545V0.0799987H51.2225L66.5105 14.136L65.6145 13.744L65.5305 0.891998H69.6185V22.34H69.5065ZM73.5256 0.891998H87.4136V4.812H82.4016V21.5H78.3416V4.812H73.5256V0.891998ZM91.3319 0.891998H105.388V4.812H95.3919V9.208H104.24V13.128H95.3919V17.58H105.78V21.5H91.3319V0.891998ZM116.224 0.891998C117.512 0.891998 118.66 1.06 119.668 1.396C120.676 1.71333 121.516 2.18 122.188 2.796C122.879 3.39333 123.402 4.12133 123.756 4.98C124.111 5.82 124.288 6.772 124.288 7.836C124.288 8.676 124.158 9.516 123.896 10.356C123.654 11.196 123.243 11.9613 122.664 12.652C122.104 13.3427 121.358 13.9027 120.424 14.332C119.491 14.7427 118.334 14.948 116.952 14.948H114.04V21.5H109.98V0.891998H116.224ZM116.924 11.028C117.54 11.028 118.054 10.9253 118.464 10.72C118.875 10.5147 119.192 10.2533 119.416 9.936C119.659 9.61867 119.827 9.292 119.92 8.956C120.032 8.60133 120.088 8.27467 120.088 7.976C120.088 7.752 120.051 7.472 119.976 7.136C119.92 6.78133 119.79 6.42667 119.584 6.072C119.379 5.71733 119.062 5.41867 118.632 5.176C118.222 4.93333 117.662 4.812 116.952 4.812H114.04V11.028H116.924ZM120.732 13.548L125.828 21.5H121.096L115.888 13.66L120.732 13.548ZM127.205 11.224C127.205 9.80533 127.475 8.46133 128.017 7.192C128.558 5.92267 129.305 4.80267 130.257 3.832C131.227 2.84267 132.347 2.068 133.617 1.508C134.886 0.947999 136.249 0.668 137.705 0.668C139.142 0.668 140.495 0.947999 141.765 1.508C143.034 2.068 144.154 2.84267 145.125 3.832C146.114 4.80267 146.879 5.92267 147.421 7.192C147.981 8.46133 148.261 9.80533 148.261 11.224C148.261 12.68 147.981 14.0427 147.421 15.312C146.879 16.5813 146.114 17.7013 145.125 18.672C144.154 19.624 143.034 20.3707 141.765 20.912C140.495 21.4533 139.142 21.724 137.705 21.724C136.249 21.724 134.886 21.4533 133.617 20.912C132.347 20.3707 131.227 19.624 130.257 18.672C129.305 17.7013 128.558 16.5813 128.017 15.312C127.475 14.0427 127.205 12.68 127.205 11.224ZM131.405 11.224C131.405 12.1387 131.563 12.9973 131.881 13.8C132.217 14.584 132.674 15.284 133.253 15.9C133.85 16.4973 134.531 16.964 135.297 17.3C136.081 17.636 136.93 17.804 137.845 17.804C138.722 17.804 139.534 17.636 140.281 17.3C141.046 16.964 141.709 16.4973 142.269 15.9C142.829 15.284 143.267 14.584 143.585 13.8C143.902 12.9973 144.061 12.1387 144.061 11.224C144.061 10.2907 143.893 9.42267 143.557 8.62C143.239 7.81733 142.791 7.11733 142.213 6.52C141.653 5.904 140.99 5.428 140.225 5.092C139.459 4.756 138.629 4.588 137.733 4.588C136.837 4.588 136.006 4.756 135.241 5.092C134.475 5.428 133.803 5.904 133.225 6.52C132.646 7.11733 132.198 7.81733 131.881 8.62C131.563 9.42267 131.405 10.2907 131.405 11.224Z" fill="#212529"/>
</svg>
